<svg id="Layer_1" enable-background="new 0 0 512 512" height="512" viewBox="0 0 512 512" width="512" xmlns="http://www.w3.org/2000/svg"><g><g id="XMLID_62_"><g id="XMLID_73_"><g id="XMLID_74_"><g id="XMLID_75_"><g id="XMLID_76_"><g id="XMLID_77_"><g id="XMLID_79_"><g id="XMLID_80_"><g id="XMLID_83_"><g id="XMLID_84_"><g id="XMLID_85_"><g id="XMLID_87_"><g id="XMLID_88_"><g id="XMLID_89_"><path d="m512 256c0 55.35-17.57 106.6-47.44 148.48-46.41 65.08-122.53 33.52-208.56 33.52-84.88 0-160.11 32.69-206.69-30.93 0-.01 0-.01 0-.01-31-42.34-49.31-94.56-49.31-151.06 0-141.38 114.62-256 256-256s256 114.62 256 256z" fill="#ffda00"/></g></g></g></g></g></g></g></g></g></g></g></g></g></g><path d="m256 438c86.03 0 162.15 31.56 208.56-33.52 29.87-41.88 47.44-93.13 47.44-148.48 0-4.327-.111-8.629-.323-12.904l-206.73-206.73-156.761 210.474 70.756 71.385-5.102 27.935-164.53 60.9v.01c46.58 63.62 121.81 30.93 206.69 30.93z" fill="#fec20a"/><g><ellipse cx="256" cy="75.474" fill="#7a4934" rx="63.594" ry="61.307"/><path d="m319.59 75.47c0 30.77-23.51 56.25-54.16 60.63-3.07.45-6.22.68-9.43.68s-6.36-.23-9.43-.68c6.59-6.88 9.43-11.56 9.43-11.56v-110.37c34.6 0 62.74 26.63 63.57 59.8.01.5.02 1 .02 1.5z" fill="#4c2c1b"/><path d="m199.97 260.488h112.06v118.84h-112.06z" fill="#e58645"/><path d="m256 260.491h56.03v118.84h-56.03z" fill="#d37535"/><path d="m312.03 332.29v.002l-150.625-.002s-111.18 45.077-112.095 74.77c46.57 63.62 121.81 104.94 206.69 104.94s160.12-41.32 206.69-104.94c-1.27-41.52-150.66-74.77-150.66-74.77z" fill="#ef9d60"/><path d="m462.69 407.06c-46.57 63.62-121.81 104.94-206.69 104.94v-179.71h93.667s113.023 34.71 113.023 74.77z" fill="#e58645"/><path d="m344.763 158.684c-3.75-56.928-49.798-77.966-88.763-77.966s-85.013 21.039-88.763 77.966c-10.076 1.949-17.234 15.165-16.107 25.85l1.727 24.317c1.182 11.221 11.046 19.413 21.916 18.194l1.875-.203c22.267 59.791 57.186 66.025 79.352 69.525 22.165-3.5 57.085-9.734 79.352-69.525l1.875.203c10.87 1.219 20.734-6.973 21.916-18.194l1.727-24.317c1.126-10.685-6.031-23.901-16.107-25.85z" fill="#ef9d60"/><path d="m360.869 184.534-1.727 24.317c-1.182 11.221-11.046 19.413-21.916 18.194l-1.875-.203c-7.61 20.411-16.689 34.587-26.229 44.534-18.397 19.192-38.521 22.683-53.123 24.991v-215.649c38.965 0 85.013 21.039 88.763 77.966 10.077 1.949 17.234 15.165 16.107 25.85z" fill="#e58645"/><path d="m340.698 88.286c-37.292-33.844-84.698-21.621-84.698-21.621s-47.406-12.223-84.698 21.621c-37.293 33.844-20.171 96.233-20.171 96.233 78.517-16.528 104.869-59.977 104.869-59.977s26.352 43.449 104.869 59.977c0 0 17.122-62.389-20.171-96.233z" fill="#89583f"/><path d="m360.87 184.52c-52.74-11.1-81.95-34.35-95.44-48.42-6.59-6.88-9.43-11.56-9.43-11.56v-57.88s31.65-8.16 63.57 7.31c7.15 3.47 14.31 8.12 21.13 14.32 37.29 33.84 20.17 96.23 20.17 96.23z" fill="#7a4934"/><path d="m464.56 404.48c-46.41 65.08-122.53 107.52-208.56 107.52-84.88 0-160.11-41.31-206.69-104.93 0-.01 0-.01 0-.01l9.22-29.11c8.62-27.19 33.85-45.66 62.36-45.66h40.52l58.92 48.11c21.05 17.18 51.33 17.02 72.19-.4l57.15-47.71h44.13c28.52 0 53.75 18.47 62.36 45.66z" fill="#e3134d"/><path d="m464.56 404.48c-46.41 65.08-122.53 107.52-208.56 107.52v-118.82c12.97.04 25.95-4.36 36.52-13.18l57.15-47.71h44.13c28.52 0 53.75 18.47 62.36 45.66z" fill="#ba003a"/><g><circle cx="159.286" cy="229" fill="#fff3e3" r="21.032"/><circle cx="352.714" cy="229" fill="#ffe5c5" r="21.032"/></g></g></g></svg>