<svg viewBox="0 0 512 512" xmlns="http://www.w3.org/2000/svg"><path d="m512 256c0 141.386719-114.613281 256-256 256s-256-114.613281-256-256 114.613281-256 256-256 256 114.613281 256 256zm0 0" fill="#00e8f2"/><path d="m512 256c0 81.511719-38.089844 154.121094-97.449219 201-43.601562 34.441406-98.679687 55-158.550781 55s-114.949219-20.558594-158.550781-55c-59.359375-46.878906-97.449219-119.488281-97.449219-201 0-141.378906 114.621094-256 256-256s256 114.621094 256 256zm0 0" fill="#00e8f2"/><path d="m414.550781 457c59.359375-46.878906 97.449219-119.488281 97.449219-201 0-4.207031-.109375-8.390625-.308594-12.546875l-167.996094-167.996094c-12.445312-15.027343-31.226562-24.609375-52.265624-24.609375-12.984376 0-25.113282 3.652344-35.429688 9.976563-10.3125-6.324219-22.441406-9.976563-35.429688-9.976563-34.726562 0-63.34375 26.085938-67.371093 59.726563-25.589844.839843-46.085938 21.835937-46.085938 47.628906 0 8.964844 2.480469 17.347656 6.78125 24.507813-7.976562 6.976562-13.019531 17.222656-13.019531 28.652343 0 10.691407 4.410156 20.355469 11.511719 27.265625l102.921875 102.582032v28.289062h-56.738282c-33.628906 0-61.121093 27.5-61.121093 61.101562v26.398438c1.484375 1.171875 2.980469 2.324219 4.492187 3.464844.039063.027344.082032.058594.121094.089844 1.484375 1.117187 2.980469 2.214843 4.488281 3.300781 42.050781 30.292969 93.667969 48.144531 149.449219 48.144531 59.871094 0 114.949219-20.558594 158.550781-55zm0 0" fill="#00b7be"/><path d="m215.304688 326.296875h81.390624v85.773437h-81.390624zm0 0" fill="#ffc473"/><path d="m256 326.296875h40.695312v85.773437h-40.695312zm0 0" fill="#ffaa20"/><path d="m360.765625 196.335938c-4.375-64.390626-59.289063-100.933594-104.765625-100.933594s-100.390625 36.542968-104.765625 100.933594c-11.765625 2.203124-20.117187 13.203124-18.808594 25.292968l2.027344 18.710938c1.375 12.691406 12.886719 21.953125 25.578125 20.578125l2.1875-.234375c25.980469 67.636718 67.914062 85.046875 93.78125 89.003906 25.867188-3.957031 67.800781-21.371094 93.78125-89.003906l2.1875.234375c12.691406 1.375 24.203125-7.886719 25.578125-20.578125l2.027344-18.710938c1.308593-12.089844-7.042969-23.089844-18.808594-25.292968zm0 0" fill="#ffdba9"/><path d="m379.570312 221.632812-2.023437 18.714844c-1.378906 12.6875-12.882813 21.945313-25.574219 20.566406l-2.1875-.234374c-25.984375 67.640624-67.914062 85.054687-93.785156 89.011718v-254.289062c45.480469 0 100.386719 36.546875 104.761719 100.933594 11.769531 2.207031 20.121093 13.203124 18.808593 25.296874zm0 0" fill="#ffc473"/><path d="m313.269531 226.945312h-57.269531v67.347657h20.34375v-48.472657h36.925781zm0 0" fill="#ffaa20"/><path d="m189.613281 226.945312h49.914063v18.875h-49.914063zm0 0" fill="#ffc473"/><path d="m414.550781 430.601562v26.398438c-43.601562 34.441406-98.679687 55-158.550781 55s-114.949219-20.558594-158.550781-55v-26.398438c0-33.601562 27.492187-61.101562 61.121093-61.101562h56.738282c0 22.921875 17.769531 41.570312 40.691406 41.570312s40.699219-18.648437 40.699219-41.570312h56.730469c33.621093 0 61.121093 27.5 61.121093 61.101562zm0 0" fill="#9331b2"/><path d="m414.550781 430.601562v26.398438c-43.601562 34.441406-98.679687 55-158.550781 55v-100.929688c22.921875 0 40.699219-18.648437 40.699219-41.570312h56.730469c33.621093 0 61.121093 27.5 61.121093 61.101562zm0 0" fill="#681f7b"/><path d="m229.226562 263.238281h-34.277343c-6.601563 0-12-5.402343-12-12v-30.542969c0-6.601562 5.398437-12 12-12h34.277343c6.597657 0 12 5.398438 12 12v30.542969c0 6.597657-5.402343 12-12 12zm0 0" fill="#fff"/><path d="m317.050781 263.238281h-34.277343c-6.597657 0-12-5.402343-12-12v-30.542969c0-6.601562 5.402343-12 12-12h34.277343c6.601563 0 12 5.398438 12 12v30.542969c0 6.597657-5.398437 12-12 12zm0 0" fill="#fff5cb"/><g fill="#ffc473"><path d="m198.03125 281.105469c0 1.683593-1.363281 3.050781-3.046875 3.050781s-3.050781-1.367188-3.050781-3.050781c0-1.683594 1.367187-3.046875 3.050781-3.046875s3.046875 1.363281 3.046875 3.046875zm0 0"/><path d="m206.550781 293.023438c0 1.683593-1.363281 3.050781-3.046875 3.050781s-3.050781-1.367188-3.050781-3.050781c0-1.683594 1.367187-3.046876 3.050781-3.046876s3.046875 1.363282 3.046875 3.046876zm0 0"/><path d="m222.066406 293.023438c0 1.683593-1.363281 3.050781-3.046875 3.050781-1.683593 0-3.050781-1.367188-3.050781-3.050781 0-1.683594 1.367188-3.046876 3.050781-3.046876 1.683594 0 3.046875 1.363282 3.046875 3.046876zm0 0"/><path d="m214.308594 281.105469c0 1.683593-1.363282 3.050781-3.046875 3.050781-1.683594 0-3.050781-1.367188-3.050781-3.050781 0-1.683594 1.367187-3.046875 3.050781-3.046875 1.683593 0 3.046875 1.363281 3.046875 3.046875zm0 0"/><path d="m230.585938 281.105469c0 1.683593-1.363282 3.050781-3.050782 3.050781-1.683594 0-3.046875-1.367188-3.046875-3.050781 0-1.683594 1.363281-3.046875 3.046875-3.046875 1.6875 0 3.050782 1.363281 3.050782 3.046875zm0 0"/></g><path d="m287.511719 281.105469c0 1.683593-1.363281 3.050781-3.046875 3.050781-1.6875 0-3.050782-1.367188-3.050782-3.050781 0-1.683594 1.363282-3.046875 3.050782-3.046875 1.683594 0 3.046875 1.363281 3.046875 3.046875zm0 0" fill="#ffaa20"/><path d="m296.03125 293.023438c0 1.683593-1.367188 3.050781-3.050781 3.050781-1.683594 0-3.046875-1.367188-3.046875-3.050781 0-1.683594 1.363281-3.046876 3.046875-3.046876 1.683593 0 3.050781 1.363282 3.050781 3.046876zm0 0" fill="#ffaa20"/><path d="m311.546875 293.023438c0 1.683593-1.367187 3.050781-3.050781 3.050781s-3.046875-1.367188-3.046875-3.050781c0-1.683594 1.363281-3.046876 3.046875-3.046876s3.050781 1.363282 3.050781 3.046876zm0 0" fill="#ffaa20"/><path d="m303.789062 281.105469c0 1.683593-1.367187 3.050781-3.050781 3.050781-1.683593 0-3.046875-1.367188-3.046875-3.050781 0-1.683594 1.363282-3.046875 3.046875-3.046875 1.683594 0 3.050781 1.363281 3.050781 3.046875zm0 0" fill="#ffaa20"/><path d="m320.066406 281.105469c0 1.683593-1.367187 3.050781-3.050781 3.050781s-3.046875-1.367188-3.046875-3.050781c0-1.683594 1.363281-3.046875 3.046875-3.046875s3.050781 1.363281 3.050781 3.046875zm0 0" fill="#ffaa20"/><path d="m343.699219 222.542969h-9.957031v-1.34375c0-9.480469-7.714844-17.195313-17.195313-17.195313h-33.265625c-9.480469 0-17.195312 7.714844-17.195312 17.195313v5.742187h-20.171876v-5.742187c0-9.480469-7.714843-17.195313-17.195312-17.195313h-33.265625c-9.480469 0-17.195313 7.714844-17.195313 17.195313v1.34375h-9.957031v13.421875h9.957031v14.765625c0 9.480469 7.714844 17.195312 17.195313 17.195312h33.265625c9.480469 0 17.195312-7.710937 17.195312-17.195312v-10.433594h20.171876v10.433594c0 9.480469 7.714843 17.195312 17.195312 17.195312h33.265625c9.480469 0 17.195313-7.710937 17.195313-17.195312v-14.765625h9.957031zm-107.164063 28.1875c0 4.308593-3.507812 7.816406-7.816406 7.816406h-33.265625c-4.308594 0-7.816406-3.507813-7.816406-7.816406v-29.53125c0-4.308594 3.507812-7.816407 7.816406-7.816407h33.265625c4.308594 0 7.816406 3.507813 7.816406 7.816407zm87.828125 0c0 4.308593-3.507812 7.816406-7.816406 7.816406h-33.265625c-4.308594 0-7.816406-3.507813-7.816406-7.816406v-29.53125c0-4.308594 3.503906-7.816407 7.816406-7.816407h33.265625c4.308594 0 7.816406 3.507813 7.816406 7.816407zm0 0" fill="#9331b2"/><path d="m333.742188 222.546875v-1.34375c0-9.484375-7.71875-17.195313-17.195313-17.195313h-33.261719c-9.488281 0-17.199218 7.710938-17.199218 17.195313v5.742187h-10.085938v13.347657h10.085938v10.4375c0 9.480469 7.710937 17.199219 17.195312 17.199219h33.265625c9.476563 0 17.195313-7.71875 17.195313-17.199219v-14.761719h9.953124v-13.421875zm-9.382813 28.183594c0 4.304687-3.507813 7.816406-7.8125 7.816406h-33.261719c-4.316406 0-7.816406-3.511719-7.816406-7.816406v-29.527344c0-4.316406 3.5-7.824219 7.816406-7.824219h33.261719c4.304687 0 7.8125 3.507813 7.8125 7.824219zm0 0" fill="#681f7b"/><path d="m398.105469 182.710938c4.300781-7.164063 6.78125-15.542969 6.78125-24.507813 0-25.792969-20.492188-46.789063-46.085938-47.628906-4.027343-33.640625-32.644531-59.726563-67.371093-59.726563-12.984376 0-25.117188 3.652344-35.429688 9.976563-10.3125-6.324219-22.445312-9.976563-35.429688-9.976563-34.726562 0-63.34375 26.085938-67.371093 59.726563-25.59375.839843-46.085938 21.835937-46.085938 47.628906 0 8.960937 2.480469 17.34375 6.78125 24.507813-7.976562 6.976562-13.019531 17.222656-13.019531 28.652343 0 21.019531 17.039062 38.0625 38.0625 38.0625s38.066406-17.042969 38.066406-38.0625c0-3.558593-.5-6.996093-1.414062-10.261719 8.585937-4.171874 15.722656-10.847656 20.476562-19.078124 7.605469 2.945312 15.859375 4.578124 24.503906 4.578124 12.984376 0 25.113282-3.652343 35.429688-9.976562 10.3125 6.324219 22.441406 9.976562 35.429688 9.976562 8.640624 0 16.898437-1.632812 24.5-4.578124 4.757812 8.230468 11.890624 14.90625 20.476562 19.078124-.910156 3.265626-1.410156 6.703126-1.410156 10.261719 0 21.019531 17.042968 38.0625 38.066406 38.0625 21.019531 0 38.0625-17.042969 38.0625-38.0625 0-11.429687-5.042969-21.675781-13.019531-28.652343zm0 0" fill="#ff8900"/><path d="m411.128906 211.359375c0 21.019531-17.050781 38.070313-38.070312 38.070313-21.019532 0-38.058594-17.050782-38.058594-38.070313 0-3.558594.5-6.988281 1.410156-10.257813-8.589844-4.171874-15.71875-10.851562-20.480468-19.082031-7.601563 2.949219-15.859376 4.582031-24.5 4.582031-12.988282 0-25.121094-3.652343-35.429688-9.972656v-115.808594c10.308594-6.320312 22.441406-9.96875 35.429688-9.96875 34.730468 0 63.339843 26.078126 67.371093 59.71875 25.589844.839844 46.089844 21.839844 46.089844 47.628907 0 8.972656-2.480469 17.351562-6.78125 24.511719 7.96875 6.980468 13.019531 17.21875 13.019531 28.648437zm0 0" fill="#c06100"/></svg>